<svg width="73" height="55" viewBox="0 0 73 55" fill="none" xmlns="http://www.w3.org/2000/svg">
<path d="M9.75113 25.7975L12.8781 10.161C13.2364 8.37113 15.5496 7.84644 16.6455 9.30628L25.9081 21.6564C27.3778 23.6169 25.5597 24.0739 19.4665 31.5889C11.3929 27.6297 9.22926 28.4069 9.75113 25.7975Z" fill="#336699"/>
<path d="M52.8905 31.5889C46.7634 24.2347 44.7986 23.6677 46.3078 21.6564L55.5704 9.30628C56.6649 7.84644 58.9795 8.37113 59.3377 10.161L62.4647 25.7975C63.0078 28.5183 60.3928 27.83 52.8905 31.5889Z" fill="#336699"/>
<path fill-rule="evenodd" clip-rule="evenodd" d="M53.6839 28.6086L68.8338 17.3404C70.4262 16.157 72.6364 17.6323 72.1484 19.559L66.3655 42.3072L63.6094 44.4229L65.2907 46.5386L63.5445 53.4062C63.3062 54.3427 62.4613 55 61.4937 55H10.7223C9.75471 55 8.90984 54.3427 8.67147 53.4062L6.9253 46.5386L9.67996 44.6119L5.85193 42.3086L0.0689913 19.5604C-0.419032 17.6366 1.78695 16.1542 3.38219 17.3404L18.5307 28.6086L34.2716 1.06491C34.6778 0.355439 35.3943 0 36.1094 0C36.8259 0 37.5396 0.355439 37.9444 1.06491L53.6839 28.6086ZM37.9212 22.1797L44.2669 32.7569C44.6689 33.4268 44.6689 34.2647 44.2669 34.9346L37.9212 45.5118C37.5121 46.193 36.8097 46.5372 36.1087 46.5386C35.4077 46.5386 34.7053 46.1973 34.2934 45.5118L27.9477 34.9346C27.5457 34.2647 27.5457 33.4268 27.9477 32.7569L34.2934 22.1797C34.7025 21.497 35.4063 21.1529 36.1087 21.1529C36.8097 21.1529 37.5093 21.4942 37.9212 22.1797Z" fill="#FF6666"/>
<path d="M21.2987 44.4228C21.2987 45.5907 20.3509 46.5385 19.183 46.5385H6.92457L5.84979 42.3071H19.183C20.3509 42.3071 21.2987 43.255 21.2987 44.4228Z" fill="#336699"/>
<path d="M66.3633 42.3071L65.2886 46.5385H53.0301C51.8623 46.5385 50.9144 45.5907 50.9144 44.4228C50.9144 43.255 51.8623 42.3071 53.0301 42.3071H66.3633Z" fill="#336699"/>
</svg>
