<?xml version="1.0" encoding="utf-8"?>
<!-- Generator: Adobe Illustrator 19.0.0, SVG Export Plug-In . SVG Version: 6.00 Build 0)  -->
<svg version="1.1" id="layer" xmlns="http://www.w3.org/2000/svg" xmlns:xlink="http://www.w3.org/1999/xlink" x="0px" y="0px"
	 viewBox="-153 -46 652 652" style="enable-background:new -153 -46 652 652;" xml:space="preserve">
<style type="text/css">
	.st0{fill:#1ABCFE;}
	.st1{fill:#0ACF83;}
	.st2{fill:#FF7262;}
	.st3{fill:#F24E1E;}
	.st4{fill:#A259FF;}
</style>
<path d="M104.6,211.4v101.8l13.1,0.1v-48.5h31.6v-12.8h-31.6v-27.8h41.1v-12.8H104.6z M182.4,232.1c4.7,0,8.6-3.8,8.6-8.6
	s-3.8-8.6-8.6-8.6c-4.7,0-8.6,3.8-8.6,8.6S177.6,232.1,182.4,232.1L182.4,232.1z M175.7,244.9v68.4h13.1v-68.4H175.7z M237.4,242.9
	c-17.4,0-29.5,14.7-29.5,32.2c0,17.5,12.1,32.2,29.5,32.2c8,0,14.5-3,19.3-8.1v9.1c0.1,11.3-8.9,20.7-20.3,20.8c-0.1,0-0.1,0-0.2,0
	c-4.2,0-8.3-1.6-11.6-3.9l-6.6,11.4c15.6,10.1,36.4,5.6,46.4-10c3.5-5.5,5.4-11.8,5.4-18.3v-63.3h-13.1v6.1
	C251.9,246,245.4,242.9,237.4,242.9L237.4,242.9z M221,275.1c0-10.9,8.3-19.4,17.9-19.4c9.6,0,17.8,8.6,17.8,19.4
	c0,10.9-8.3,19.3-17.8,19.3C229.3,294.4,221,285.9,221,275.1z M317,255.7c-7.8,0.1-14.1,6.5-14,14.3v43.2h-13.1v-68.4H303v6.3
	c4-5.3,10.2-8.3,16.9-8.2c9.2,0,16.3,4.5,20.3,11.5c4.6-7.1,12.4-11.4,20.8-11.5c14.9,0,24.2,12,24.2,26.9v43.4h-13V270
	c0-7.8-6.2-14.2-14-14.3c-7.8,0.1-14.1,6.5-14,14.3v43.2H331V270C331,262.2,324.8,255.8,317,255.7L317,255.7z M455,252.6
	c-6-6.3-14.4-9.8-23.1-9.7c-19.5,0-33.3,16.5-33.3,36.1c0,19.7,13.8,36.1,33.3,36.1c8.7,0,17-3.5,23.1-9.7v7.8h13.1v-68.4H455
	L455,252.6L455,252.6z M411.7,279c0-13,10-23.4,21.7-23.4C445,255.7,455,266,455,279c0,13-10,23.3-21.7,23.3
	C421.8,302.4,411.7,292.1,411.7,279z"/>
<path id="b" class="st0" d="M-64.6,274.5c0-18.6,15.1-33.7,33.7-33.7s33.7,15.1,33.7,33.7s-15.1,33.7-33.7,33.7
	S-64.6,293.1-64.6,274.5z"/>
<path id="c" class="st1" d="M-131.9,341.8c0-18.6,15.1-33.7,33.7-33.7h33.7v33.7c0,18.6-15.1,33.7-33.7,33.7
	S-131.9,360.4-131.9,341.8z"/>
<path id="d" class="st2" d="M-64.6,173.5v67.3h33.7c18.6,0,33.7-15.1,33.7-33.7s-15.1-33.7-33.7-33.7H-64.6z"/>
<path id="e" class="st3" d="M-131.9,207.2c0,18.6,15.1,33.7,33.7,33.7h33.7v-67.3h-33.7C-116.8,173.5-131.9,188.6-131.9,207.2z"/>
<path id="e_1_" class="st4" d="M-131.9,274.5c0,18.6,15.1,33.7,33.7,33.7h33.7v-67.3h-33.7C-116.8,240.8-131.9,255.9-131.9,274.5z"
	/>
</svg>
