<svg width="110" height="19" viewBox="0 0 110 19" fill="none" xmlns="http://www.w3.org/2000/svg">
<path d="M3.04 17C2.74667 17 2.5 16.9 2.3 16.7C2.1 16.5 2 16.2533 2 15.96V2.42C2 2.11333 2.1 1.86667 2.3 1.68C2.5 1.48 2.74667 1.38 3.04 1.38H6.66C7.80667 1.38 8.84667 1.57333 9.78 1.96C10.7267 2.33333 11.5467 2.87333 12.24 3.58C12.9333 4.27333 13.4667 5.09333 13.84 6.04C14.2133 6.98667 14.4 8.03333 14.4 9.18C14.4 10.3267 14.2133 11.38 13.84 12.34C13.4667 13.2867 12.9333 14.1133 12.24 14.82C11.5467 15.5133 10.7267 16.0533 9.78 16.44C8.84667 16.8133 7.80667 17 6.66 17H3.04ZM4.08 15.16H6.66C7.78 15.16 8.76667 14.9067 9.62 14.4C10.4867 13.88 11.1667 13.1733 11.66 12.28C12.1533 11.3733 12.4 10.34 12.4 9.18C12.4 8.00667 12.1533 6.97333 11.66 6.08C11.1667 5.18667 10.4867 4.48667 9.62 3.98C8.76667 3.47333 7.78 3.22 6.66 3.22H4.08V15.16ZM22.6041 17.08C21.4974 17.08 20.5107 16.8467 19.6441 16.38C18.7907 15.9 18.1174 15.2467 17.6241 14.42C17.1441 13.58 16.9041 12.62 16.9041 11.54C16.9041 10.4467 17.1307 9.48667 17.5841 8.66C18.0507 7.82 18.6907 7.16667 19.5041 6.7C20.3174 6.22 21.2507 5.98 22.3041 5.98C23.3441 5.98 24.2374 6.21333 24.9841 6.68C25.7307 7.13333 26.2974 7.76667 26.6841 8.58C27.0841 9.38 27.2841 10.3067 27.2841 11.36C27.2841 11.6133 27.1974 11.8267 27.0241 12C26.8507 12.16 26.6307 12.24 26.3641 12.24H18.3041V10.64H26.3041L25.4841 11.2C25.4707 10.5333 25.3374 9.94 25.0841 9.42C24.8307 8.88667 24.4707 8.46667 24.0041 8.16C23.5374 7.85333 22.9707 7.7 22.3041 7.7C21.5441 7.7 20.8907 7.86667 20.3441 8.2C19.8107 8.53333 19.4041 8.99333 19.1241 9.58C18.8441 10.1533 18.7041 10.8067 18.7041 11.54C18.7041 12.2733 18.8707 12.9267 19.2041 13.5C19.5374 14.0733 19.9974 14.5267 20.5841 14.86C21.1707 15.1933 21.8441 15.36 22.6041 15.36C23.0174 15.36 23.4374 15.2867 23.8641 15.14C24.3041 14.98 24.6574 14.8 24.9241 14.6C25.1241 14.4533 25.3374 14.38 25.5641 14.38C25.8041 14.3667 26.0107 14.4333 26.1841 14.58C26.4107 14.78 26.5307 15 26.5441 15.24C26.5574 15.48 26.4507 15.6867 26.2241 15.86C25.7707 16.22 25.2041 16.5133 24.5241 16.74C23.8574 16.9667 23.2174 17.08 22.6041 17.08ZM33.1953 16.98C32.782 16.98 32.462 16.76 32.2353 16.32L27.9953 7.38C27.8886 7.15333 27.8753 6.93333 27.9553 6.72C28.0486 6.49333 28.222 6.32 28.4753 6.2C28.702 6.08 28.9286 6.06 29.1553 6.14C29.3953 6.22 29.5753 6.37333 29.6953 6.6L33.6553 15.14H32.6953L36.6153 6.6C36.7353 6.37333 36.9153 6.22 37.1553 6.14C37.4086 6.06 37.662 6.08 37.9153 6.2C38.1553 6.30667 38.3153 6.47333 38.3953 6.7C38.4753 6.92667 38.462 7.15333 38.3553 7.38L34.1153 16.32C33.9153 16.76 33.6086 16.98 33.1953 16.98Z" fill="#FF6666"/>
<path d="M44.96 17.2C44.1067 17.2 43.2933 17.0667 42.52 16.8C41.7467 16.5333 41.0733 16.16 40.5 15.68C39.9267 15.2 39.5067 14.6467 39.24 14.02C39.1067 13.74 39.1067 13.48 39.24 13.24C39.3867 13 39.6267 12.8467 39.96 12.78C40.2 12.7267 40.4333 12.7667 40.66 12.9C40.9 13.02 41.08 13.2067 41.2 13.46C41.36 13.7933 41.62 14.1 41.98 14.38C42.3533 14.66 42.8 14.8867 43.32 15.06C43.84 15.2333 44.3867 15.32 44.96 15.32C45.6 15.32 46.1867 15.22 46.72 15.02C47.2667 14.82 47.7067 14.5333 48.04 14.16C48.3733 13.7733 48.54 13.3 48.54 12.74C48.54 12.0333 48.26 11.4 47.7 10.84C47.1533 10.28 46.2467 9.93333 44.98 9.8C43.3267 9.64 42.0267 9.15333 41.08 8.34C40.1333 7.52667 39.66 6.52 39.66 5.32C39.66 4.44 39.9067 3.69333 40.4 3.08C40.8933 2.46667 41.56 2 42.4 1.68C43.2533 1.36 44.2 1.2 45.24 1.2C46.0533 1.2 46.76 1.31333 47.36 1.54C47.9733 1.76667 48.5067 2.08 48.96 2.48C49.4133 2.88 49.8067 3.35333 50.14 3.9C50.3267 4.19333 50.4 4.47333 50.36 4.74C50.3333 4.99333 50.2067 5.19333 49.98 5.34C49.7267 5.5 49.4533 5.53333 49.16 5.44C48.8667 5.34667 48.6467 5.17333 48.5 4.92C48.2867 4.53333 48.0267 4.20667 47.72 3.94C47.4133 3.67333 47.0533 3.46667 46.64 3.32C46.2267 3.16 45.74 3.08 45.18 3.08C44.1933 3.06667 43.3667 3.25333 42.7 3.64C42.0333 4.01333 41.7 4.59333 41.7 5.38C41.7 5.78 41.8 6.16667 42 6.54C42.2133 6.9 42.5933 7.21333 43.14 7.48C43.7 7.74667 44.5 7.93333 45.54 8.04C47.1267 8.2 48.36 8.68667 49.24 9.5C50.1333 10.3 50.58 11.36 50.58 12.68C50.58 13.44 50.42 14.1 50.1 14.66C49.7933 15.22 49.3733 15.6933 48.84 16.08C48.32 16.4533 47.72 16.7333 47.04 16.92C46.3733 17.1067 45.68 17.2 44.96 17.2ZM57.5495 17C56.8829 17 56.2829 16.8333 55.7495 16.5C55.2162 16.1533 54.7962 15.6867 54.4895 15.1C54.1829 14.5133 54.0295 13.8533 54.0295 13.12V3.58C54.0295 3.28667 54.1229 3.04667 54.3095 2.86C54.4962 2.67333 54.7362 2.58 55.0295 2.58C55.3229 2.58 55.5629 2.67333 55.7495 2.86C55.9362 3.04667 56.0295 3.28667 56.0295 3.58V13.12C56.0295 13.6533 56.1762 14.1 56.4695 14.46C56.7629 14.82 57.1229 15 57.5495 15H58.2295C58.4695 15 58.6695 15.0933 58.8295 15.28C59.0029 15.4667 59.0895 15.7067 59.0895 16C59.0895 16.2933 58.9762 16.5333 58.7495 16.72C58.5362 16.9067 58.2562 17 57.9095 17H57.5495ZM53.1095 8.18C52.8295 8.18 52.6029 8.1 52.4295 7.94C52.2562 7.78 52.1695 7.58 52.1695 7.34C52.1695 7.07333 52.2562 6.86 52.4295 6.7C52.6029 6.54 52.8295 6.46 53.1095 6.46H57.7295C58.0095 6.46 58.2362 6.54 58.4095 6.7C58.5829 6.86 58.6695 7.07333 58.6695 7.34C58.6695 7.58 58.5829 7.78 58.4095 7.94C58.2362 8.1 58.0095 8.18 57.7295 8.18H53.1095ZM66.1969 17.1C65.2769 17.1 64.4502 16.9067 63.7169 16.52C62.9969 16.12 62.4235 15.54 61.9969 14.78C61.5835 14.02 61.3769 13.0867 61.3769 11.98V7.06C61.3769 6.76667 61.4702 6.52667 61.6569 6.34C61.8569 6.14 62.1035 6.04 62.3969 6.04C62.6902 6.04 62.9302 6.14 63.1169 6.34C63.3169 6.52667 63.4169 6.76667 63.4169 7.06V11.98C63.4169 12.7267 63.5569 13.3467 63.8369 13.84C64.1169 14.32 64.4969 14.68 64.9769 14.92C65.4569 15.1467 65.9969 15.26 66.5969 15.26C67.1702 15.26 67.6769 15.1467 68.1169 14.92C68.5702 14.6933 68.9302 14.3867 69.1969 14C69.4635 13.6133 69.5969 13.18 69.5969 12.7H70.8569C70.8569 13.5267 70.6502 14.2733 70.2369 14.94C69.8369 15.6067 69.2835 16.1333 68.5769 16.52C67.8835 16.9067 67.0902 17.1 66.1969 17.1ZM70.6169 17C70.3235 17 70.0769 16.9067 69.8769 16.72C69.6902 16.52 69.5969 16.2733 69.5969 15.98V7.06C69.5969 6.75333 69.6902 6.50667 69.8769 6.32C70.0769 6.13333 70.3235 6.04 70.6169 6.04C70.9235 6.04 71.1702 6.13333 71.3569 6.32C71.5435 6.50667 71.6369 6.75333 71.6369 7.06V15.98C71.6369 16.2733 71.5435 16.52 71.3569 16.72C71.1702 16.9067 70.9235 17 70.6169 17ZM80.1897 17.08C79.1497 17.08 78.2097 16.84 77.3697 16.36C76.543 15.8667 75.883 15.2 75.3897 14.36C74.9097 13.52 74.6697 12.5733 74.6697 11.52C74.6697 10.4667 74.8897 9.52667 75.3297 8.7C75.783 7.86 76.3964 7.2 77.1697 6.72C77.943 6.22667 78.8164 5.98 79.7897 5.98C80.5764 5.98 81.303 6.14667 81.9697 6.48C82.6364 6.8 83.1964 7.24 83.6497 7.8V2.4C83.6497 2.09333 83.743 1.84667 83.9297 1.66C84.1297 1.47333 84.3764 1.38 84.6697 1.38C84.9764 1.38 85.223 1.47333 85.4097 1.66C85.5964 1.84667 85.6897 2.09333 85.6897 2.4V11.52C85.6897 12.5733 85.443 13.52 84.9497 14.36C84.4697 15.2 83.8164 15.8667 82.9897 16.36C82.163 16.84 81.2297 17.08 80.1897 17.08ZM80.1897 15.28C80.8697 15.28 81.4764 15.12 82.0097 14.8C82.543 14.4667 82.963 14.0133 83.2697 13.44C83.5764 12.8667 83.7297 12.2267 83.7297 11.52C83.7297 10.8 83.5764 10.16 83.2697 9.6C82.963 9.04 82.543 8.6 82.0097 8.28C81.4764 7.94667 80.8697 7.78 80.1897 7.78C79.523 7.78 78.9164 7.94667 78.3697 8.28C77.8364 8.6 77.4097 9.04 77.0897 9.6C76.783 10.16 76.6297 10.8 76.6297 11.52C76.6297 12.2267 76.783 12.8667 77.0897 13.44C77.4097 14.0133 77.8364 14.4667 78.3697 14.8C78.9164 15.12 79.523 15.28 80.1897 15.28ZM90.5122 17C90.2189 17 89.9722 16.9067 89.7722 16.72C89.5855 16.52 89.4922 16.2733 89.4922 15.98V7.08C89.4922 6.77333 89.5855 6.52667 89.7722 6.34C89.9722 6.15333 90.2189 6.06 90.5122 6.06C90.8189 6.06 91.0655 6.15333 91.2522 6.34C91.4389 6.52667 91.5322 6.77333 91.5322 7.08V15.98C91.5322 16.2733 91.4389 16.52 91.2522 16.72C91.0655 16.9067 90.8189 17 90.5122 17ZM90.5122 4.28C90.1522 4.28 89.8389 4.15333 89.5722 3.9C89.3189 3.63333 89.1922 3.32 89.1922 2.96C89.1922 2.6 89.3189 2.29333 89.5722 2.04C89.8389 1.77333 90.1522 1.64 90.5122 1.64C90.8722 1.64 91.1789 1.77333 91.4322 2.04C91.6989 2.29333 91.8322 2.6 91.8322 2.96C91.8322 3.32 91.6989 3.63333 91.4322 3.9C91.1789 4.15333 90.8722 4.28 90.5122 4.28ZM100.287 17.08C99.2073 17.08 98.254 16.8467 97.4273 16.38C96.6007 15.9 95.9473 15.2467 95.4673 14.42C95.0007 13.58 94.7673 12.62 94.7673 11.54C94.7673 10.4467 95.0007 9.48667 95.4673 8.66C95.9473 7.82 96.6007 7.16667 97.4273 6.7C98.254 6.22 99.2073 5.98 100.287 5.98C101.354 5.98 102.301 6.22 103.127 6.7C103.954 7.16667 104.601 7.82 105.067 8.66C105.547 9.48667 105.787 10.4467 105.787 11.54C105.787 12.62 105.554 13.58 105.087 14.42C104.621 15.2467 103.974 15.9 103.147 16.38C102.321 16.8467 101.367 17.08 100.287 17.08ZM100.287 15.28C100.981 15.28 101.594 15.12 102.127 14.8C102.661 14.48 103.074 14.04 103.367 13.48C103.674 12.92 103.827 12.2733 103.827 11.54C103.827 10.8067 103.674 10.16 103.367 9.6C103.074 9.02667 102.661 8.58 102.127 8.26C101.594 7.94 100.981 7.78 100.287 7.78C99.594 7.78 98.9807 7.94 98.4473 8.26C97.914 8.58 97.494 9.02667 97.1873 9.6C96.8807 10.16 96.7273 10.8067 96.7273 11.54C96.7273 12.2733 96.8807 12.92 97.1873 13.48C97.494 14.04 97.914 14.48 98.4473 14.8C98.9807 15.12 99.594 15.28 100.287 15.28Z" fill="#336699"/>
</svg>
